<svg xmlns="http://www.w3.org/2000/svg" xmlns:xlink="http://www.w3.org/1999/xlink"><defs><linearGradient id="paint0_linear" x1="-2" y1="3" x2="21.475" y2="70.448" gradientUnits="userSpaceOnUse"><stop stop-color="#D10A42"/><stop offset="1" stop-color="#0041CA"/></linearGradient><linearGradient id="paint0_linear" x1="-3" y1="2" x2="28.518" y2="60.694" gradientUnits="userSpaceOnUse"><stop stop-color="#D10A42"/><stop offset="1" stop-color="#0041CA"/></linearGradient><linearGradient id="paint0_linear" x1="-2" y1="3" x2="29.023" y2="62.422" gradientUnits="userSpaceOnUse"><stop stop-color="#D10A42"/><stop offset="1" stop-color="#0041CA"/></linearGradient><linearGradient id="paint0_linear" x1="-3" y1="3" x2="19.444" y2="41.104" gradientUnits="userSpaceOnUse"><stop stop-color="#D10A42"/><stop offset="1" stop-color="#0041CA"/></linearGradient></defs><symbol id="icon-350"><path d="M10.03 22.29h4.75c1.802 0 3.12-.624 3.951-1.872.856-1.272 1.283-2.959 1.283-5.062 0-2.01-.439-3.57-1.317-4.68-.855-1.133-2.011-1.699-3.467-1.699-1.364 0-2.485.532-3.363 1.595-.855 1.063-1.283 2.403-1.283 4.021H.774c0-2.634.6-4.992 1.802-7.072C3.801 5.418 5.5 3.777 7.672 2.598 9.868 1.42 12.295.83 14.952.83c4.646 0 8.286 1.283 10.921 3.848 2.635 2.566 3.952 6.079 3.952 10.54 0 2.287-.6 4.414-1.802 6.378-1.18 1.942-2.74 3.432-4.68 4.472 2.38 1.017 4.148 2.543 5.303 4.576 1.18 2.034 1.769 4.438 1.769 7.212 0 4.483-1.433 8.077-4.3 10.781-2.842 2.704-6.586 4.056-11.232 4.056-4.322 0-7.835-1.329-10.539-3.986-2.68-2.681-4.021-6.194-4.021-10.54h9.81c0 1.803.475 3.317 1.422 4.542.948 1.225 2.15 1.837 3.606 1.837 1.687 0 3.016-.624 3.987-1.872.993-1.248 1.49-2.912 1.49-4.992 0-4.969-1.93-7.465-5.79-7.488H10.03V22.29zm28.185 4.888L40.71 1.523h24.44v8.39H48.755l-.901 10.817c1.895-1.272 3.848-1.907 5.858-1.907 4.16 0 7.362 1.479 9.604 4.437 2.264 2.959 3.397 7.142 3.397 12.55 0 5.062-1.34 9.14-4.022 12.238-2.68 3.097-6.263 4.645-10.747 4.645-2.657 0-5.119-.624-7.384-1.872a14.174 14.174 0 01-5.373-5.27c-1.295-2.241-1.953-4.783-1.977-7.626h9.707c.162 2.103.682 3.732 1.56 4.888.879 1.156 2.011 1.733 3.398 1.733 1.618 0 2.866-.774 3.744-2.322.878-1.572 1.317-3.906 1.317-7.003 0-2.912-.531-5.108-1.594-6.587-1.04-1.48-2.508-2.219-4.403-2.219-1.849 0-3.282.636-4.299 1.907l-.624.867-7.8-2.011zm64.24 3.952c0 6.98-1.272 12.319-3.814 16.017-2.52 3.697-6.125 5.546-10.816 5.546-4.646 0-8.24-1.79-10.782-5.373-2.52-3.606-3.825-8.76-3.918-15.462v-9.534c0-6.957 1.26-12.272 3.78-15.947C79.423 2.679 83.04.83 87.754.83s8.332 1.826 10.851 5.478c2.52 3.651 3.802 8.863 3.849 15.635v9.187zm-9.846-10.227c0-3.975-.393-6.957-1.179-8.944-.786-1.988-2.01-2.982-3.675-2.982-3.12 0-4.738 3.64-4.853 10.92v12.585c0 4.068.393 7.095 1.179 9.083.808 1.988 2.056 2.981 3.744 2.981 1.594 0 2.773-.924 3.536-2.773.786-1.872 1.202-4.727 1.248-8.563V20.903z" fill="url(#paint0_linear)"/></symbol><symbol id="icon-5+"><path d="M1.299 26.178L3.795.523h24.44v8.39H11.839l-.901 10.817c1.895-1.272 3.848-1.907 5.858-1.907 4.16 0 7.362 1.479 9.603 4.437 2.265 2.959 3.398 7.142 3.398 12.55 0 5.062-1.34 9.14-4.022 12.238-2.68 3.097-6.263 4.645-10.747 4.645-2.657 0-5.119-.624-7.384-1.872a14.173 14.173 0 01-5.373-5.27C.975 42.31.317 39.769.293 36.926h9.708c.161 2.103.681 3.732 1.56 4.888.878 1.156 2.01 1.733 3.397 1.733 1.618 0 2.866-.774 3.744-2.322.878-1.572 1.317-3.906 1.317-7.003 0-2.912-.531-5.108-1.594-6.587-1.04-1.48-2.508-2.219-4.403-2.219-1.849 0-3.282.636-4.299 1.907l-.624.867-7.8-2.011zM54.41 22.71h9.811v9.118h-9.81v14.11h-9.292v-14.11h-9.984V22.71h9.984V9.19h9.291v13.52z" fill="url(#paint0_linear)"/></symbol><symbol id="icon-70"><path d="M30.9 7.174L14.953 52H4.587L20.604 9.67H.357V1.523H30.9v5.651zM66.539 31.13c0 6.98-1.272 12.319-3.814 16.017-2.52 3.697-6.125 5.546-10.816 5.546-4.646 0-8.24-1.79-10.782-5.373-2.52-3.606-3.825-8.76-3.918-15.462v-9.534c0-6.957 1.26-12.272 3.78-15.947C43.507 2.679 47.124.83 51.838.83c4.715 0 8.332 1.826 10.851 5.478 2.52 3.651 3.802 8.863 3.849 15.635v9.187zm-9.846-10.227c0-3.975-.393-6.957-1.179-8.944-.786-1.988-2.01-2.982-3.675-2.982-3.12 0-4.738 3.64-4.853 10.92v12.585c0 4.068.393 7.095 1.179 9.083.809 1.988 2.056 2.981 3.744 2.981 1.594 0 2.773-.924 3.536-2.773.786-1.872 1.202-4.727 1.248-8.563V20.903z" fill="url(#paint0_linear)"/></symbol><symbol id="icon-900"><path d="M19.326 32.482c-2.08 2.126-4.356 3.19-6.83 3.19-3.836 0-6.864-1.538-9.082-4.611C1.218 27.963.12 23.838.12 18.684c0-3.328.624-6.367 1.872-9.118 1.248-2.773 2.982-4.922 5.2-6.448C9.434 1.593 11.93.83 14.681.83c2.842 0 5.373.844 7.592 2.53 2.219 1.688 3.94 4.115 5.166 7.281 1.224 3.143 1.837 6.726 1.837 10.747v3.571c0 8.598-1.895 15.323-5.686 20.177-3.767 4.83-9.117 7.292-16.05 7.384H6.533v-8.459h.658c3.837-.023 6.714-1.017 8.633-2.981 1.941-1.965 3.108-4.83 3.501-8.598zm-4.333-4.507c1.895 0 3.386-1.294 4.472-3.883v-4.507c0-3.305-.45-5.893-1.352-7.765-.902-1.895-2.069-2.843-3.502-2.843-1.41 0-2.554.936-3.432 2.808-.855 1.85-1.283 4.114-1.283 6.795 0 2.912.451 5.212 1.352 6.899.902 1.664 2.15 2.496 3.745 2.496zm50.546 3.155c0 6.98-1.272 12.319-3.814 16.017-2.52 3.697-6.125 5.546-10.816 5.546-4.646 0-8.24-1.79-10.782-5.373-2.52-3.606-3.825-8.76-3.918-15.462v-9.534c0-6.957 1.26-12.272 3.78-15.947C42.507 2.679 46.124.83 50.838.83c4.715 0 8.332 1.826 10.851 5.478 2.52 3.651 3.802 8.863 3.849 15.635v9.187zm-9.846-10.227c0-3.975-.393-6.957-1.179-8.944-.786-1.988-2.01-2.982-3.675-2.982-3.12 0-4.738 3.64-4.853 10.92v12.585c0 4.068.393 7.095 1.179 9.083.809 1.988 2.056 2.981 3.744 2.981 1.594 0 2.773-.924 3.536-2.773.786-1.872 1.202-4.727 1.248-8.563V20.903zm45.762 10.227c0 6.98-1.272 12.319-3.814 16.017-2.52 3.697-6.125 5.546-10.816 5.546-4.646 0-8.24-1.79-10.782-5.373-2.52-3.606-3.825-8.76-3.918-15.462v-9.534c0-6.957 1.26-12.272 3.78-15.947C78.423 2.679 82.04.83 86.754.83s8.332 1.826 10.851 5.478c2.52 3.651 3.802 8.863 3.849 15.635v9.187zm-9.846-10.227c0-3.975-.393-6.957-1.179-8.944-.786-1.988-2.01-2.982-3.675-2.982-3.12 0-4.738 3.64-4.853 10.92v12.585c0 4.068.393 7.095 1.179 9.083.808 1.988 2.056 2.981 3.744 2.981 1.594 0 2.773-.924 3.536-2.773.786-1.872 1.202-4.727 1.248-8.563V20.903z" fill="url(#paint0_linear)"/></symbol><symbol id="icon-fb"><path d="M11.548.005L8.67 0C5.436 0 3.347 2.318 3.347 5.906V8.63H.453c-.25 0-.453.219-.453.49v3.945c0 .27.203.49.453.49h2.894v9.956c0 .27.202.489.452.489h3.776c.25 0 .452-.22.452-.49v-9.956h3.384c.25 0 .453-.219.453-.489l.001-3.946a.51.51 0 00-.132-.346.436.436 0 00-.32-.143H8.026V6.32c0-1.11.245-1.673 1.582-1.673h1.939c.25 0 .452-.22.452-.49V.494c0-.27-.202-.489-.452-.489z"/></symbol><symbol id="icon-insta"><path d="M17.503 0H6.497A6.504 6.504 0 000 6.497v11.007A6.504 6.504 0 006.497 24h11.007A6.504 6.504 0 0024 17.504V6.497A6.504 6.504 0 0017.503 0zM12 18.562A6.57 6.57 0 015.438 12 6.57 6.57 0 0112 5.438 6.57 6.57 0 0118.562 12 6.57 6.57 0 0112 18.562zm6.72-11.577c-1.07 0-1.94-.87-1.94-1.939 0-1.07.87-1.94 1.94-1.94 1.069 0 1.939.87 1.939 1.94 0 1.07-.87 1.94-1.94 1.94z"/><path d="M12 6.844A5.161 5.161 0 006.845 12 5.161 5.161 0 0012 17.155 5.161 5.161 0 0017.155 12 5.161 5.161 0 0012 6.844zm6.719-2.33a.533.533 0 10.001 1.066.533.533 0 00-.001-1.066z"/></symbol><symbol id="icon-logo"><path d="M.676 5.168c0-1.473.355-2.6 1.066-3.38C2.452.991 3.502.592 4.888.592c1.387 0 2.435.399 3.146 1.196.71.78 1.066 1.907 1.066 3.38v.572H6.396v-.754c0-1.196-.477-1.794-1.43-1.794s-1.43.598-1.43 1.794c0 .676.19 1.317.572 1.924.381.59.84 1.127 1.378 1.612.555.485 1.11.997 1.664 1.534.555.52 1.023 1.179 1.404 1.976.381.78.572 1.647.572 2.6 0 1.473-.364 2.609-1.092 3.406-.728.78-1.785 1.17-3.172 1.17-1.387 0-2.444-.39-3.172-1.17-.728-.797-1.092-1.933-1.092-3.406v-1.118h2.704v1.3c0 1.179.494 1.768 1.482 1.768s1.482-.59 1.482-1.768a3.43 3.43 0 00-.572-1.898 7.405 7.405 0 00-1.404-1.638c-.537-.485-1.083-.988-1.638-1.508-.555-.537-1.023-1.196-1.404-1.976C.867 6.997.676 6.121.676 5.168zM11.155.8h2.86v14.04c0 1.179.494 1.768 1.482 1.768s1.482-.59 1.482-1.768V.8h2.704v13.858c0 1.473-.364 2.609-1.092 3.406-.728.78-1.786 1.17-3.172 1.17-1.387 0-2.444-.39-3.172-1.17-.728-.797-1.092-1.933-1.092-3.406V.8zm15.221 0c2.843 0 4.264 1.5 4.264 4.498v2.366c0 2.999-1.421 4.498-4.264 4.498h-1.352V19h-2.86V.8h4.212zm0 2.6h-1.352v6.162h1.352c.468 0 .815-.13 1.04-.39.243-.26.364-.702.364-1.326v-2.73c0-.624-.121-1.066-.364-1.326-.225-.26-.572-.39-1.04-.39zm8.969 0v5.07h3.926v2.6h-3.926v5.33h4.94V19h-7.8V.8h7.8v2.6h-4.94zM51.469 19h-2.912c-.173-.52-.26-1.265-.26-2.236v-2.86c0-.832-.147-1.421-.442-1.768-.295-.364-.771-.546-1.43-.546h-.988V19h-2.86V.8h4.316c1.473 0 2.548.347 3.224 1.04.676.676 1.014 1.725 1.014 3.146v1.43c0 1.872-.624 3.103-1.872 3.692 1.265.537 1.898 1.829 1.898 3.874v2.808c0 .988.104 1.725.312 2.21zM46.815 3.4h-1.378v5.59h1.118c.572 0 .997-.147 1.274-.442.295-.295.442-.789.442-1.482V5.272c0-1.248-.485-1.872-1.456-1.872zm11.033 8.06v-2.6h4.004v5.772c0 1.473-.364 2.609-1.092 3.406-.728.78-1.785 1.17-3.172 1.17-1.387 0-2.444-.39-3.172-1.17-.728-.797-1.092-1.933-1.092-3.406V5.168c0-1.473.364-2.6 1.092-3.38.728-.797 1.785-1.196 3.172-1.196 1.387 0 2.444.399 3.172 1.196.728.78 1.092 1.907 1.092 3.38v1.768h-2.704v-1.95c0-1.196-.494-1.794-1.482-1.794s-1.482.598-1.482 1.794v9.828c0 1.179.494 1.768 1.482 1.768s1.482-.59 1.482-1.768V11.46h-1.3zM66.506 19v-6.032L62.892.8h2.99l2.184 8.294L70.25.8h2.73l-3.614 12.168V19h-2.86zM78.609.8l2.106 12.922L82.665.8h3.978V19h-2.704V5.948L81.963 19h-2.704L77.127 6.13V19H74.63V.8h3.978z"/></symbol><symbol id="icon-vk"><path d="M20.655 8.266c.796.744 1.637 1.444 2.35 2.263.316.364.615.74.843 1.162.324.6.03 1.26-.532 1.297l-3.496-.002c-.902.072-1.621-.276-2.226-.866-.484-.472-.933-.974-1.398-1.462a3.27 3.27 0 00-.63-.535c-.476-.297-.89-.206-1.164.27-.277.485-.34 1.022-.368 1.562-.037.788-.286.995-1.113 1.031-1.767.08-3.445-.176-5.003-1.03-1.374-.752-2.44-1.814-3.366-3.016C2.746 6.598 1.364 4.026.122 1.38-.159.786.045.466.732.455A97.704 97.704 0 014.156.452c.464.007.77.261.95.68.617 1.453 1.372 2.835 2.32 4.115.252.341.51.682.876.922.405.266.714.178.905-.254.12-.274.174-.57.201-.863.09-1.01.102-2.019-.056-3.025C9.255 1.399 8.885.992 8.23.873c-.334-.06-.284-.18-.123-.362C8.388.196 8.653 0 9.18 0h3.951c.622.118.76.385.845.984l.004 4.201c-.007.232.12.92.557 1.074.35.11.58-.158.79-.37.946-.961 1.62-2.097 2.224-3.273.268-.517.498-1.054.721-1.591.165-.398.425-.594.893-.586l3.803.004c.113 0 .227.001.336.02.641.104.817.368.619.967-.312.94-.919 1.722-1.512 2.51-.634.84-1.313 1.65-1.941 2.495-.578.772-.532 1.16.185 1.831z"/></symbol></svg>